<?xml version="1.0" encoding="UTF-8"?><svg id="Layer_2" xmlns="http://www.w3.org/2000/svg" viewBox="0 0 573.35 323.07"><defs><style>.cls-1{fill:#e6e7e8;}.cls-2{fill:#231f20;}</style></defs><g><path class="cls-1" d="m323.92,256.92l117.49,25.51s64.33,21.73,107.8-34.77c43.47-56.51,16.11-33.59-34.98-52.44-51.09-18.85-190.31,61.7-190.31,61.7Z"/><path class="cls-2" d="m470.82,289.03c-16.67,0-28.56-3.7-30.07-4.2l-123.67-26.85,5.59-3.24c5.73-3.31,140.83-80.92,192.42-61.89,15.06,5.56,28.18,7.45,37.76,8.82,10.73,1.55,17.82,2.57,19.93,7.76,2.4,5.91-2.44,14.82-21.59,39.72-23.02,29.92-51.85,38.02-71.99,39.54-2.9.22-5.7.32-8.38.32Zm-139.93-33.16l111.19,24.14.13.04c.16.05,16,5.28,36.8,3.67,27.73-2.15,50.68-14.8,68.21-37.59,11.1-14.43,22.79-30.21,20.92-34.79-1.03-2.54-7.64-3.49-16.01-4.69-9.8-1.41-23.22-3.34-38.77-9.08-43.62-16.09-155.86,43.58-182.48,58.31Z"/></g><g><path class="cls-1" d="m190.18,299.81l298.18-95.63s98.42-18.18,0-79.98c-45.61-28.64-194.73-92.15-194.73-92.15,0,0-78.24-29.56-154.74,0C74.61,56.89-6.29,84.22,3.27,232c9.43,145.74,186.9,67.81,186.9,67.81Z"/><path class="cls-2" d="m95.84,323.07c-19.19,0-39.01-3.35-55.46-13.35C16.49,295.19,3.17,269.1.78,232.16-8.67,86.17,70.01,55.89,133.23,31.56l4.76-1.83c40-15.46,80.42-14.64,107.27-11.23,29.08,3.69,48.44,10.92,49.25,11.23l.1.04c1.49.64,149.82,63.91,195.08,92.33,32.54,20.43,47.52,38.7,44.54,54.29-4.2,21.93-42.05,29.62-45.25,30.23l-297.91,95.54c-1.9.82-25.01,10.63-54.06,16.5-12.16,2.46-26.47,4.42-41.15,4.42ZM212.79,21.5c-22.66,0-47.99,3.22-73.01,12.89l-4.76,1.84C70.12,61.2-3.44,89.52,5.77,231.84c2.28,35.21,14.8,59.97,37.21,73.6,53.1,32.29,145.27-7.51,146.2-7.92l.24-.09,298.33-95.67.16-.03c.38-.07,37.77-7.21,41.41-26.29,2.52-13.18-12.11-30.16-42.29-49.11-44.61-28.01-190.82-90.45-194.33-91.94-1.47-.54-35.58-12.88-79.9-12.88Z"/></g><g><path class="cls-1" d="m185.83,18.92s-11.3-16.42,20.86-16.42,27.82,16.42,27.82,16.42h-48.68Z"/><path class="cls-2" d="m236.44,21.42h-51.92l-.75-1.08c-.18-.26-4.28-6.34-1.25-12.1,2.91-5.54,10.82-8.23,24.18-8.23s23.18,2.98,27.7,8.85c3.95,5.13,2.59,10.49,2.53,10.71l-.49,1.86Zm-49.14-5h44.89c-.09-1.23-.5-2.93-1.83-4.61-2.45-3.11-8.55-6.81-23.67-6.81s-18.64,3.47-19.74,5.54c-1.1,2.08-.3,4.51.35,5.88Z"/></g><path class="cls-2" d="m23.86,233.23c-2.1,13.64.7,27.84,7.77,39.71s18.42,20.8,31.5,25.29c7.34,2.52,15.18,3.59,22.92,3.08,1.28-.08,1.29-2.08,0-2-13.35.88-26.77-3.08-37.62-10.89s-18.39-19.44-21.58-32.35c-1.8-7.27-2.2-14.89-1.06-22.31.19-1.26-1.73-1.8-1.93-.53h0Z"/><path class="cls-2" d="m48.71,241.04c-2.97,3.7-1.42,8.61.7,12.34s5.05,7.45,8.28,10.55c6.54,6.24,14.8,10.69,23.61,12.71,4.98,1.14,10.12,1.49,15.2.98,1.27-.13,1.28-2.13,0-2-16.63,1.66-33.78-6.24-43.32-19.99-2.31-3.33-6.22-9.26-3.07-13.17.8-.99-.61-2.42-1.41-1.41h0Z"/><path class="cls-2" d="m460.12,194.1c12.26-3.89,22.08-14.09,25.45-26.51.34-1.24-1.59-1.77-1.93-.53-3.19,11.74-12.45,21.44-24.05,25.11-1.22.39-.7,2.32.53,1.93h0Z"/><path class="cls-2" d="m480.97,192.35c9.27-3.41,16.44-11.63,18.42-21.33.26-1.26-1.67-1.79-1.93-.53-1.84,8.99-8.39,16.75-17.03,19.93-1.2.44-.68,2.37.53,1.93h0Z"/><path class="cls-2" d="m110.52,299.97c20.39,2.61,40.63-2.7,59.95-8.74s39.88-12.83,59.74-19.46c19.81-6.61,39.57-13.35,59.29-20.24s39.38-13.9,59-21.05c19.71-7.19,39.37-14.51,58.98-21.97,2.42-.92,4.83-1.84,7.25-2.76,1.19-.46.67-2.39-.53-1.93-19.5,7.46-39.06,14.78-58.66,21.97-19.51,7.15-39.07,14.18-58.68,21.06-19.7,6.92-39.45,13.7-59.25,20.35-19.7,6.61-39.45,13.09-59.24,19.43-19.48,6.24-39.59,12.79-60.3,11.98-2.52-.1-5.04-.32-7.54-.64-1.27-.16-1.26,1.84,0,2h0Z"/><path class="cls-2" d="m350.06,250.09c17.23,4.27,34.76,7.28,52.42,9.02,1.28.13,1.27-1.88,0-2-17.49-1.72-34.84-4.71-51.89-8.94-1.25-.31-1.78,1.62-.53,1.93h0Z"/><path class="cls-2" d="m374.52,242.54c17.6,3.19,35.2,6.37,52.81,9.56,4.99.9,9.99,1.81,14.98,2.71,1.26.23,1.8-1.7.53-1.93-17.6-3.19-35.2-6.37-52.81-9.56-4.99-.9-9.99-1.81-14.98-2.71-1.26-.23-1.8,1.7-.53,1.93h0Z"/><path class="cls-2" d="m402.21,234.57c2.45-1.03-.42-3.83-1.95-2.34-.88.86-.31,2.24.51,2.89,1.37,1.07,3.54,1.14,5.18,1.46,8.58,1.67,17.16,3.33,25.73,5,1.26.24,1.8-1.68.53-1.93-5.39-1.05-10.78-2.09-16.18-3.14-2.61-.51-5.23-1.02-7.84-1.52-1.39-.27-2.78-.54-4.17-.81-.52-.1-1.05-.17-1.54-.37-.43-.17-.32-.18-.8-.09-.35.04-.45.09-.29.16.4.24.49-.17.28-1.23-1.17.49-.66,2.43.53,1.93h0Z"/><path class="cls-2" d="m424.99,226.7c7.48,1.46,14.95,2.92,22.43,4.38,1.26.25,1.8-1.68.53-1.93-7.48-1.46-14.95-2.92-22.43-4.38-1.26-.25-1.8,1.68-.53,1.93h0Z"/></svg>