<svg width="25" height="25" viewBox="0 0 25 25" fill="none" xmlns="http://www.w3.org/2000/svg">
<path d="M16.3911 16.0832L16.5363 16.2233H16.7381H17.66L24.2932 22.8699L22.8699 24.2932L16.2233 17.66V16.7381V16.5363L16.0832 16.3911L15.6973 15.9908L15.3695 15.6509L15.0114 15.9587C13.469 17.2847 11.4681 18.082 9.29103 18.082C7.55233 18.082 5.85267 17.5665 4.407 16.6005C2.96132 15.6345 1.83455 14.2616 1.16918 12.6552C0.503809 11.0489 0.329718 9.28127 0.668921 7.57598C1.00812 5.87069 1.84539 4.30428 3.07483 3.07483C4.30428 1.84539 5.87069 1.00812 7.57598 0.668921C9.28127 0.329718 11.0489 0.503809 12.6552 1.16918C14.2616 1.83455 15.6345 2.96132 16.6005 4.407C17.5665 5.85267 18.082 7.55233 18.082 9.29103V9.29138C18.0835 11.3908 17.3301 13.4208 15.9592 15.0108L15.6504 15.369L15.9908 15.6973L16.3911 16.0832ZM2.35878 9.29103C2.35878 13.1263 5.45571 16.2233 9.29103 16.2233C13.1263 16.2233 16.2233 13.1263 16.2233 9.29103C16.2233 5.45571 13.1263 2.35878 9.29103 2.35878C5.45571 2.35878 2.35878 5.45571 2.35878 9.29103Z" fill="white" stroke="black"/>
</svg>
