<svg width="93" height="106" viewBox="0 0 93 106" fill="none" xmlns="http://www.w3.org/2000/svg">
<path d="M22.2631 30.5397L22.6586 30.0818L22.4364 29.5189C22.0741 28.6014 21.8012 27.6348 21.6187 26.6178C21.4352 25.5955 21.3438 24.575 21.3438 23.5556C21.3438 20.0148 22.2818 16.9013 24.1441 14.1811C26.026 11.4421 28.4701 9.43137 31.4918 8.13262L31.7047 8.04108L31.8557 7.86518C33.7064 5.70889 35.8747 4.02745 38.365 2.81265C40.8352 1.60765 43.5418 1 46.5 1C49.4582 1 52.1648 1.60765 54.635 2.81265C57.1253 4.02745 59.2936 5.70889 61.1443 7.86518L61.2953 8.04108L61.5082 8.13262C64.5295 9.43121 66.9733 11.4416 68.8552 14.1801C70.718 16.9005 71.6562 20.0144 71.6562 23.5556C71.6562 24.575 71.5648 25.5955 71.3814 26.6178C71.1988 27.6348 70.9259 28.6014 70.5636 29.5189L70.3414 30.0817L70.7369 30.5397C72.0139 32.0183 72.9672 33.6517 73.6028 35.4438C74.2406 37.2458 74.5625 39.1697 74.5625 41.2222C74.5625 45.8716 72.9673 49.7891 69.7649 53.0336C66.5629 56.2777 62.7023 57.8889 58.125 57.8889H34.875C30.2977 57.8889 26.4371 56.2777 23.2351 53.0336C20.0327 49.7891 18.4375 45.8716 18.4375 41.2222C18.4375 39.1695 18.7595 37.2454 19.3974 35.4432C20.033 33.6513 20.9862 32.0181 22.2631 30.5397ZM92 89.5111V105H1V89.5111C1 86.3532 1.80042 83.4671 3.40065 80.8317L3.40149 80.8303C5.00238 78.184 7.1186 76.179 9.75842 74.7943C15.6984 71.7859 21.728 69.5315 27.848 68.0279C33.9698 66.5278 40.1865 65.7778 46.5 65.7778C52.8135 65.7778 59.0302 66.5278 65.152 68.0279C71.272 69.5315 77.3017 71.7859 83.2416 74.7943C85.8814 76.179 87.9976 78.184 89.5985 80.8303L89.5994 80.8317C91.1996 83.4671 92 86.3532 92 89.5111Z" fill="white" stroke="black" stroke-width="2"/>
</svg>
