<svg width="25" height="25" viewBox="0 0 25 25" fill="none" xmlns="http://www.w3.org/2000/svg">
<path d="M7 16.2907V16.7907H7.5H9.5V24.1832C4.3293 22.8442 0.5 18.1395 0.5 12.5313C0.5 5.889 5.87732 0.5 12.5 0.5C19.1227 0.5 24.5 5.889 24.5 12.5313C24.5 18.5863 20.0432 23.5881 14.25 24.4351V16.7907H17.5H18V16.2907V12.5313V12.0313H17.5H14.25V10.0251C14.25 9.6108 14.5898 9.27193 15 9.27193H17.5H18V8.77193V5.01253V4.51253H17.5H14.375C11.6852 4.51253 9.5 6.70499 9.5 9.3985V12.0313H7.5H7V12.5313V16.2907Z" fill="white" stroke="black"/>
</svg>
