<svg width="25" height="25" viewBox="0 0 25 25" fill="none" xmlns="http://www.w3.org/2000/svg">
<path d="M16 12.5009C15.9998 13.1928 15.7946 13.8692 15.4101 14.4445C15.0256 15.0201 14.4789 15.4687 13.8394 15.7336C13.1999 15.9985 12.4961 16.0678 11.8172 15.9327C11.1383 15.7977 10.5146 15.4644 10.0251 14.9749C9.53564 14.4854 9.2023 13.8617 9.06725 13.1828C8.9322 12.5039 9.00151 11.8001 9.26642 11.1606C9.53133 10.5211 9.97993 9.97444 10.5555 9.58986C11.1309 9.20539 11.8073 9.00013 12.4993 9C13.4268 9.00312 14.3154 9.37294 14.9712 10.0288C15.6271 10.6847 15.9969 11.5734 16 12.5009ZM24.5 7V18C24.5 19.7239 23.8152 21.3772 22.5962 22.5962C21.3772 23.8152 19.7239 24.5 18 24.5H7C5.27609 24.5 3.62279 23.8152 2.40381 22.5962C1.18482 21.3772 0.5 19.7239 0.5 18V7C0.5 5.27609 1.18482 3.62279 2.40381 2.40381C3.62279 1.18482 5.27609 0.5 7 0.5H18C19.7239 0.5 21.3772 1.18482 22.5962 2.40381C23.8152 3.62279 24.5 5.27609 24.5 7ZM19 12.5C19 11.2144 18.6188 9.95771 17.9046 8.88879C17.1903 7.81987 16.1752 6.98675 14.9874 6.49478C13.7997 6.00281 12.4928 5.87409 11.2319 6.1249C9.97104 6.3757 8.81285 6.99476 7.90381 7.90381C6.99476 8.81285 6.3757 9.97104 6.1249 11.2319C5.87409 12.4928 6.00281 13.7997 6.49478 14.9874C6.98675 16.1752 7.81987 17.1903 8.88879 17.9046C9.95771 18.6188 11.2144 19 12.5 19C14.2239 19 15.8772 18.3152 17.0962 17.0962C18.3152 15.8772 19 14.2239 19 12.5ZM21 6C21 5.60444 20.8827 5.21776 20.6629 4.88886C20.4432 4.55996 20.1308 4.30362 19.7654 4.15224C19.3999 4.00087 18.9978 3.96126 18.6098 4.03843C18.2219 4.1156 17.8655 4.30608 17.5858 4.58579C17.3061 4.86549 17.1156 5.22186 17.0384 5.60982C16.9613 5.99778 17.0009 6.39992 17.1522 6.76537C17.3036 7.13082 17.56 7.44318 17.8889 7.66294C18.2178 7.8827 18.6044 8 19 8C19.5304 8 20.0391 7.78929 20.4142 7.41421C20.7893 7.03914 21 6.53043 21 6Z" fill="white" stroke="black"/>
</svg>
