<svg width="25" height="25" viewBox="0 0 25 25" fill="none" xmlns="http://www.w3.org/2000/svg">
<path d="M4.96386 17.9299C4.3538 17.3706 3.85945 16.6299 3.5282 15.7718C4.11571 15.8045 4.7053 15.7243 5.2743 15.5327L6.90687 14.9829L5.23364 14.5732C3.36911 14.1166 1.82527 12.1845 1.54814 9.67739C2.09791 9.91337 2.69739 10.0588 3.33413 10.0588H4.76562L3.64544 9.16756C2.39655 8.1739 1.55163 6.38712 1.55163 4.32353C1.55163 3.57942 1.66438 2.86453 1.86932 2.21085C4.44882 5.69343 8.13684 7.99139 12.2777 8.24904L12.916 8.28875L12.8006 7.65976C12.7221 7.23229 12.6773 6.7772 12.6773 6.30882C12.6773 2.99609 14.8412 0.5 17.2801 0.5C18.6083 0.5 19.7935 1.14408 20.6557 2.2991L20.8556 2.5668L21.1794 2.48464C21.9206 2.29658 22.6387 2.02284 23.3223 1.66361C22.9245 2.44588 22.3856 3.09238 21.7625 3.55418L22.138 4.4498C22.6737 4.36547 23.2005 4.23566 23.7137 4.06034C23.2323 4.73194 22.6965 5.33178 22.1125 5.84504L21.9329 6.00297L21.9431 6.24195C21.9545 6.50901 21.9546 6.76322 21.9546 7.04412C21.9546 11.1196 20.6877 15.5042 18.2839 18.8576C15.8871 22.2012 12.379 24.5 7.86329 24.5C5.66285 24.5 3.57214 23.8688 1.70566 22.7392C3.98526 22.6256 6.16729 21.6266 7.93734 19.9023L8.79065 19.071L7.59965 19.0442C6.66287 19.0232 5.74039 18.6418 4.96386 17.9299ZM1.21597 22.75C1.2165 22.75 1.21704 22.75 1.21758 22.75L1.21787 22.4293L1.21597 22.75Z" fill="white" stroke="black"/>
</svg>
